# xmcd
#
# Track frame offsets: 
#        150
#        18742
#        35320
#        52465
#        68925
#        88477
#        104157
#        123317
#        137375
#        151215
#        168280
#
# Disc length: 2444 seconds
#
# Revision: 3
# Processed by: cddbd v1.5.2PL0 Copyright (c) Steve Scherf et al.
# Submitted via: ExactAudioCopy v0.90b4
#
DISCID=9d098a0b
DTITLE=Delta Moon - Clear Blue Flame
DYEAR=2007
DGENRE=Blues
TTITLE0=Clear Blue Flame
TTITLE1=Blind Spot
TTITLE2=Money Changes Everything
TTITLE3=Trouble In The Home
TTITLE4=Jessie Mae
TTITLE5=Cool Your Jets
TTITLE6=Life's a Song
TTITLE7=Stranger In My Hometown
TTITLE8=Lap Dog
TTITLE9=I'm A Witness
TTITLE10=You Done Told Everbody
EXTD=
EXTT0=
EXTT1=
EXTT2=
EXTT3=
EXTT4=
EXTT5=
EXTT6=
EXTT7=
EXTT8=
EXTT9=
EXTT10=
PLAYORDER=
